<svg width="26" height="25" viewBox="0 0 26 25" fill="none" xmlns="http://www.w3.org/2000/svg">
<path d="M21.3334 7.29166H4.66671C3.51611 7.29166 2.58337 8.2244 2.58337 9.37499V19.7917C2.58337 20.9422 3.51611 21.875 4.66671 21.875H21.3334C22.484 21.875 23.4167 20.9422 23.4167 19.7917V9.37499C23.4167 8.2244 22.484 7.29166 21.3334 7.29166Z" stroke="#00818A" stroke-opacity="0.7" stroke-width="2" stroke-linecap="round" stroke-linejoin="round"/>
<path d="M17.1667 21.875V5.20833C17.1667 4.6558 16.9472 4.12589 16.5565 3.73519C16.1658 3.34449 15.6359 3.125 15.0834 3.125H10.9167C10.3642 3.125 9.83427 3.34449 9.44357 3.73519C9.05287 4.12589 8.83337 4.6558 8.83337 5.20833V21.875" stroke="#00818A" stroke-opacity="0.7" stroke-width="2" stroke-linecap="round" stroke-linejoin="round"/>
</svg>
