<svg width="26" height="25" viewBox="0 0 26 25" fill="none" xmlns="http://www.w3.org/2000/svg">
<path d="M15.0833 2.08334H6.74996C6.19742 2.08334 5.66752 2.30284 5.27682 2.69354C4.88612 3.08424 4.66663 3.61414 4.66663 4.16668V20.8333C4.66663 21.3859 4.88612 21.9158 5.27682 22.3065C5.66752 22.6972 6.19742 22.9167 6.74996 22.9167H19.25C19.8025 22.9167 20.3324 22.6972 20.7231 22.3065C21.1138 21.9158 21.3333 21.3859 21.3333 20.8333V8.33334L15.0833 2.08334Z" stroke="#00818A" stroke-opacity="0.7" stroke-width="2" stroke-linecap="round" stroke-linejoin="round"/>
<path d="M15.0834 2.08334V8.33334H21.3334" stroke="#00818A" stroke-opacity="0.7" stroke-width="2" stroke-linecap="round" stroke-linejoin="round"/>
<path d="M17.1667 13.5417H8.83337" stroke="#00818A" stroke-opacity="0.7" stroke-width="2" stroke-linecap="round" stroke-linejoin="round"/>
<path d="M17.1667 17.7083H8.83337" stroke="#00818A" stroke-opacity="0.7" stroke-width="2" stroke-linecap="round" stroke-linejoin="round"/>
<path d="M10.9167 9.375H9.87504H8.83337" stroke="#00818A" stroke-opacity="0.7" stroke-width="2" stroke-linecap="round" stroke-linejoin="round"/>
</svg>
